<svg id="visual" viewBox="0 0 900 600" width="900" height="600" xmlns="http://www.w3.org/2000/svg" xmlns:xlink="http://www.w3.org/1999/xlink" version="1.1"><g stroke-width="1" stroke-linejoin="bevel"><path d="M452.7 303L512.6 319L476 250Z" fill="#a07c2d" stroke="#a07c2d"></path><path d="M512.6 319L490 246L476 250Z" fill="#604e2b" stroke="#604e2b"></path><path d="M512.6 319L521.3 231L490 246Z" fill="#8a6c2d" stroke="#8a6c2d"></path><path d="M490 246L440.7 170L476 250Z" fill="#383127" stroke="#383127"></path><path d="M452.7 303L480 359L512.6 319Z" fill="#cd9d2b" stroke="#cd9d2b"></path><path d="M480 359L519.6 360L512.6 319Z" fill="#383127" stroke="#383127"></path><path d="M512.6 319L578.3 236L521.3 231Z" fill="#383127" stroke="#383127"></path><path d="M603.9 368L578.3 236L512.6 319Z" fill="#cd9d2b" stroke="#cd9d2b"></path><path d="M578.3 236L515 187L521.3 231Z" fill="#fbbf24" stroke="#fbbf24"></path><path d="M521.3 231L515 187L490 246Z" fill="#755d2c" stroke="#755d2c"></path><path d="M429 405L494.3 401L480 359Z" fill="#cd9d2b" stroke="#cd9d2b"></path><path d="M480 359L494.3 401L519.6 360Z" fill="#b68c2d" stroke="#b68c2d"></path><path d="M476 250L375.4 315L452.7 303Z" fill="#755d2c" stroke="#755d2c"></path><path d="M452.7 303L429 405L480 359Z" fill="#4c3f29" stroke="#4c3f29"></path><path d="M440.7 170L375.4 315L476 250Z" fill="#4c3f29" stroke="#4c3f29"></path><path d="M515 187L440.7 170L490 246Z" fill="#242424" stroke="#242424"></path><path d="M317.7 283L359.7 312L375.4 315Z" fill="#604e2b" stroke="#604e2b"></path><path d="M375.4 315L429 405L452.7 303Z" fill="#755d2c" stroke="#755d2c"></path><path d="M367.4 378L429 405L375.4 315Z" fill="#604e2b" stroke="#604e2b"></path><path d="M537.3 448L586.6 382L519.6 360Z" fill="#fbbf24" stroke="#fbbf24"></path><path d="M519.6 360L603.9 368L512.6 319Z" fill="#383127" stroke="#383127"></path><path d="M586.6 382L603.9 368L519.6 360Z" fill="#cd9d2b" stroke="#cd9d2b"></path><path d="M621.9 204L601.6 202L578.3 236Z" fill="#cd9d2b" stroke="#cd9d2b"></path><path d="M578.3 236L601.6 202L515 187Z" fill="#8a6c2d" stroke="#8a6c2d"></path><path d="M515 187L478.3 113L440.7 170Z" fill="#a07c2d" stroke="#a07c2d"></path><path d="M359.7 312L363.4 369L375.4 315Z" fill="#fbbf24" stroke="#fbbf24"></path><path d="M363.4 369L367.4 378L375.4 315Z" fill="#cd9d2b" stroke="#cd9d2b"></path><path d="M429 405L498.3 439L494.3 401Z" fill="#383127" stroke="#383127"></path><path d="M494.3 401L537.3 448L519.6 360Z" fill="#a07c2d" stroke="#a07c2d"></path><path d="M414 499L498.3 439L429 405Z" fill="#242424" stroke="#242424"></path><path d="M367.4 378L404 417L429 405Z" fill="#e4ae28" stroke="#e4ae28"></path><path d="M655.9 311L621.9 204L578.3 236Z" fill="#a07c2d" stroke="#a07c2d"></path><path d="M604.9 150L536.3 123L515 187Z" fill="#604e2b" stroke="#604e2b"></path><path d="M621.9 204L620.9 193L601.6 202Z" fill="#fbbf24" stroke="#fbbf24"></path><path d="M498.3 439L537.3 448L494.3 401Z" fill="#cd9d2b" stroke="#cd9d2b"></path><path d="M586.6 382L626.9 388L603.9 368Z" fill="#242424" stroke="#242424"></path><path d="M626.9 388L655.9 311L603.9 368Z" fill="#cd9d2b" stroke="#cd9d2b"></path><path d="M603.9 368L655.9 311L578.3 236Z" fill="#cd9d2b" stroke="#cd9d2b"></path><path d="M621.9 204L709.1 205L620.9 193Z" fill="#4c3f29" stroke="#4c3f29"></path><path d="M584.6 484L626.9 388L586.6 382Z" fill="#4c3f29" stroke="#4c3f29"></path><path d="M604.9 150L515 187L601.6 202Z" fill="#8a6c2d" stroke="#8a6c2d"></path><path d="M356.7 154L317.7 283L375.4 315Z" fill="#cd9d2b" stroke="#cd9d2b"></path><path d="M359.7 312L280.1 314L363.4 369Z" fill="#383127" stroke="#383127"></path><path d="M363.4 369L359.7 425L367.4 378Z" fill="#fbbf24" stroke="#fbbf24"></path><path d="M478.3 113L430 126L440.7 170Z" fill="#a07c2d" stroke="#a07c2d"></path><path d="M440.7 170L356.7 154L375.4 315Z" fill="#cd9d2b" stroke="#cd9d2b"></path><path d="M536.3 123L478.3 113L515 187Z" fill="#a07c2d" stroke="#a07c2d"></path><path d="M620.9 193L604.9 150L601.6 202Z" fill="#e4ae28" stroke="#e4ae28"></path><path d="M429.7 17L400 126L430 126Z" fill="#383127" stroke="#383127"></path><path d="M430 126L400 126L440.7 170Z" fill="#604e2b" stroke="#604e2b"></path><path d="M400 126L356.7 154L440.7 170Z" fill="#b68c2d" stroke="#b68c2d"></path><path d="M252.9 386L359.7 425L363.4 369Z" fill="#a07c2d" stroke="#a07c2d"></path><path d="M367.4 378L359.7 425L404 417Z" fill="#755d2c" stroke="#755d2c"></path><path d="M404 417L414 499L429 405Z" fill="#fbbf24" stroke="#fbbf24"></path><path d="M570.6 496L584.6 484L537.3 448Z" fill="#755d2c" stroke="#755d2c"></path><path d="M604.9 150L574.6 118L536.3 123Z" fill="#604e2b" stroke="#604e2b"></path><path d="M536.3 123L582.6 83L478.3 113Z" fill="#b68c2d" stroke="#b68c2d"></path><path d="M626.9 388L678.1 313L655.9 311Z" fill="#a07c2d" stroke="#a07c2d"></path><path d="M655.9 311L702.1 259L621.9 204Z" fill="#4c3f29" stroke="#4c3f29"></path><path d="M725.1 131L677.9 85L604.9 150Z" fill="#755d2c" stroke="#755d2c"></path><path d="M233.9 226L280.1 314L317.7 283Z" fill="#383127" stroke="#383127"></path><path d="M317.7 283L280.1 314L359.7 312Z" fill="#e4ae28" stroke="#e4ae28"></path><path d="M678.1 313L702.1 259L655.9 311Z" fill="#4c3f29" stroke="#4c3f29"></path><path d="M400 126L356.4 116L356.7 154Z" fill="#604e2b" stroke="#604e2b"></path><path d="M356.7 154L300.1 181L317.7 283Z" fill="#4c3f29" stroke="#4c3f29"></path><path d="M429.7 17L356.4 116L400 126Z" fill="#fbbf24" stroke="#fbbf24"></path><path d="M342.4 124L300.1 181L356.7 154Z" fill="#4c3f29" stroke="#4c3f29"></path><path d="M570.6 496L537.3 448L498.3 439Z" fill="#a07c2d" stroke="#a07c2d"></path><path d="M537.3 448L584.6 484L586.6 382Z" fill="#242424" stroke="#242424"></path><path d="M626.9 388L669.1 420L678.1 313Z" fill="#8a6c2d" stroke="#8a6c2d"></path><path d="M356.4 116L342.4 124L356.7 154Z" fill="#8a6c2d" stroke="#8a6c2d"></path><path d="M702.1 259L705.4 235L621.9 204Z" fill="#b68c2d" stroke="#b68c2d"></path><path d="M604.9 150L582.6 83L574.6 118Z" fill="#604e2b" stroke="#604e2b"></path><path d="M584.6 484L669.1 420L626.9 388Z" fill="#e4ae28" stroke="#e4ae28"></path><path d="M678.1 313L820.4 278L702.1 259Z" fill="#a07c2d" stroke="#a07c2d"></path><path d="M414 499L570.6 496L498.3 439Z" fill="#e4ae28" stroke="#e4ae28"></path><path d="M661.1 483L687.1 444L669.1 420Z" fill="#8a6c2d" stroke="#8a6c2d"></path><path d="M359.7 425L414 499L404 417Z" fill="#fbbf24" stroke="#fbbf24"></path><path d="M642.6 65L582.6 83L604.9 150Z" fill="#a07c2d" stroke="#a07c2d"></path><path d="M574.6 118L582.6 83L536.3 123Z" fill="#e4ae28" stroke="#e4ae28"></path><path d="M363.7 0L318.4 98L356.4 116Z" fill="#e4ae28" stroke="#e4ae28"></path><path d="M705.4 235L709.1 205L621.9 204Z" fill="#a07c2d" stroke="#a07c2d"></path><path d="M661.1 483L669.1 420L584.6 484Z" fill="#a07c2d" stroke="#a07c2d"></path><path d="M669.1 420L764.4 406L678.1 313Z" fill="#e4ae28" stroke="#e4ae28"></path><path d="M770.7 189L709.1 205L705.4 235Z" fill="#fbbf24" stroke="#fbbf24"></path><path d="M770.7 189L725.1 131L709.1 205Z" fill="#755d2c" stroke="#755d2c"></path><path d="M429.7 17L430 126L478.3 113Z" fill="#4c3f29" stroke="#4c3f29"></path><path d="M356.4 116L318.4 98L342.4 124Z" fill="#e4ae28" stroke="#e4ae28"></path><path d="M342.4 124L318.4 98L300.1 181Z" fill="#8a6c2d" stroke="#8a6c2d"></path><path d="M216.9 351L252.9 386L280.1 314Z" fill="#383127" stroke="#383127"></path><path d="M280.1 314L252.9 386L363.4 369Z" fill="#4c3f29" stroke="#4c3f29"></path><path d="M359.7 425L323.7 492L414 499Z" fill="#b68c2d" stroke="#b68c2d"></path><path d="M233.9 226L317.7 283L300.1 181Z" fill="#8a6c2d" stroke="#8a6c2d"></path><path d="M318.4 98L253.4 183L300.1 181Z" fill="#242424" stroke="#242424"></path><path d="M687.9 535L661.1 483L584.6 484Z" fill="#755d2c" stroke="#755d2c"></path><path d="M253.4 183L233.9 226L300.1 181Z" fill="#755d2c" stroke="#755d2c"></path><path d="M283.4 466L323.7 492L359.7 425Z" fill="#a07c2d" stroke="#a07c2d"></path><path d="M677.9 85L663.1 83L604.9 150Z" fill="#604e2b" stroke="#604e2b"></path><path d="M663.1 83L642.6 65L604.9 150Z" fill="#cd9d2b" stroke="#cd9d2b"></path><path d="M449.3 9L429.7 17L478.3 113Z" fill="#242424" stroke="#242424"></path><path d="M661.1 483L680.1 480L687.1 444Z" fill="#242424" stroke="#242424"></path><path d="M252.9 386L283.4 466L359.7 425Z" fill="#8a6c2d" stroke="#8a6c2d"></path><path d="M449.3 9L478.3 113L461.3 0Z" fill="#cd9d2b" stroke="#cd9d2b"></path><path d="M663.1 83L677.9 85L642.6 65Z" fill="#604e2b" stroke="#604e2b"></path><path d="M725.1 131L604.9 150L620.9 193Z" fill="#604e2b" stroke="#604e2b"></path><path d="M207.1 345L216.9 351L280.1 314Z" fill="#604e2b" stroke="#604e2b"></path><path d="M252.9 386L220.9 430L283.4 466Z" fill="#cd9d2b" stroke="#cd9d2b"></path><path d="M461.3 0L478.3 113L582.6 83Z" fill="#e4ae28" stroke="#e4ae28"></path><path d="M770.7 189L705.4 235L806.7 242Z" fill="#b68c2d" stroke="#b68c2d"></path><path d="M709.1 205L725.1 131L620.9 193Z" fill="#b68c2d" stroke="#b68c2d"></path><path d="M169.6 297L207.1 345L280.1 314Z" fill="#e4ae28" stroke="#e4ae28"></path><path d="M190.1 369L220.9 430L252.9 386Z" fill="#cd9d2b" stroke="#cd9d2b"></path><path d="M584.9 0L461.3 0L582.6 83Z" fill="#b68c2d" stroke="#b68c2d"></path><path d="M449.3 9L429 0L429.7 17Z" fill="#604e2b" stroke="#604e2b"></path><path d="M461.3 0L429 0L449.3 9Z" fill="#e4ae28" stroke="#e4ae28"></path><path d="M429.7 17L363.7 0L356.4 116Z" fill="#242424" stroke="#242424"></path><path d="M323.7 492L386.7 564L414 499Z" fill="#242424" stroke="#242424"></path><path d="M414 499L448.3 591L570.6 496Z" fill="#4c3f29" stroke="#4c3f29"></path><path d="M649.9 595L687.9 535L584.6 484Z" fill="#b68c2d" stroke="#b68c2d"></path><path d="M661.1 483L687.9 535L680.1 480Z" fill="#a07c2d" stroke="#a07c2d"></path><path d="M394 600L386.7 564L355.4 600Z" fill="#fbbf24" stroke="#fbbf24"></path><path d="M253.4 183L211.1 183L233.9 226Z" fill="#a07c2d" stroke="#a07c2d"></path><path d="M233.9 226L169.6 297L280.1 314Z" fill="#4c3f29" stroke="#4c3f29"></path><path d="M278.1 33L211.1 183L253.4 183Z" fill="#383127" stroke="#383127"></path><path d="M278.1 33L253.4 183L318.4 98Z" fill="#242424" stroke="#242424"></path><path d="M806.7 242L705.4 235L702.1 259Z" fill="#604e2b" stroke="#604e2b"></path><path d="M764.4 406L669.1 420L687.1 444Z" fill="#b68c2d" stroke="#b68c2d"></path><path d="M747.4 445L764.4 406L687.1 444Z" fill="#4c3f29" stroke="#4c3f29"></path><path d="M211.1 183L201.1 201L233.9 226Z" fill="#e4ae28" stroke="#e4ae28"></path><path d="M680.1 480L747.4 445L687.1 444Z" fill="#604e2b" stroke="#604e2b"></path><path d="M636.6 0L584.9 0L642.6 65Z" fill="#8a6c2d" stroke="#8a6c2d"></path><path d="M642.6 65L584.9 0L582.6 83Z" fill="#242424" stroke="#242424"></path><path d="M190.1 369L252.9 386L216.9 351Z" fill="#755d2c" stroke="#755d2c"></path><path d="M355.4 600L386.7 564L323.7 492Z" fill="#b68c2d" stroke="#b68c2d"></path><path d="M201.1 201L187.6 240L233.9 226Z" fill="#242424" stroke="#242424"></path><path d="M207.1 345L190.1 369L216.9 351Z" fill="#fbbf24" stroke="#fbbf24"></path><path d="M386.7 564L448.3 591L414 499Z" fill="#a07c2d" stroke="#a07c2d"></path><path d="M174.6 355L190.1 369L207.1 345Z" fill="#8a6c2d" stroke="#8a6c2d"></path><path d="M429 0L363.7 0L429.7 17Z" fill="#fbbf24" stroke="#fbbf24"></path><path d="M412.7 600L447.3 600L448.3 591Z" fill="#4c3f29" stroke="#4c3f29"></path><path d="M448.3 591L573.6 600L570.6 496Z" fill="#b68c2d" stroke="#b68c2d"></path><path d="M649.9 595L584.6 484L570.6 496Z" fill="#cd9d2b" stroke="#cd9d2b"></path><path d="M680.1 480L687.9 535L747.4 445Z" fill="#a07c2d" stroke="#a07c2d"></path><path d="M187.6 240L169.6 297L233.9 226Z" fill="#383127" stroke="#383127"></path><path d="M820.4 278L806.7 242L702.1 259Z" fill="#242424" stroke="#242424"></path><path d="M169.6 297L174.6 355L207.1 345Z" fill="#604e2b" stroke="#604e2b"></path><path d="M140.6 404L219.1 484L220.9 430Z" fill="#604e2b" stroke="#604e2b"></path><path d="M386.7 564L412.7 600L448.3 591Z" fill="#383127" stroke="#383127"></path><path d="M394 600L412.7 600L386.7 564Z" fill="#604e2b" stroke="#604e2b"></path><path d="M719.1 0L642.6 65L677.9 85Z" fill="#fbbf24" stroke="#fbbf24"></path><path d="M719.1 0L636.6 0L642.6 65Z" fill="#fbbf24" stroke="#fbbf24"></path><path d="M771.7 63L677.9 85L725.1 131Z" fill="#4c3f29" stroke="#4c3f29"></path><path d="M807.4 193L778.4 143L770.7 189Z" fill="#a07c2d" stroke="#a07c2d"></path><path d="M770.7 189L778.4 143L725.1 131Z" fill="#4c3f29" stroke="#4c3f29"></path><path d="M447.3 600L573.6 600L448.3 591Z" fill="#cd9d2b" stroke="#cd9d2b"></path><path d="M259.4 565L323.7 492L283.4 466Z" fill="#755d2c" stroke="#755d2c"></path><path d="M363.7 0L278.1 33L318.4 98Z" fill="#a07c2d" stroke="#a07c2d"></path><path d="M119.6 175L158.9 253L201.1 201Z" fill="#8a6c2d" stroke="#8a6c2d"></path><path d="M573.6 600L596.9 600L570.6 496Z" fill="#a07c2d" stroke="#a07c2d"></path><path d="M764.4 406L820.4 278L678.1 313Z" fill="#4c3f29" stroke="#4c3f29"></path><path d="M806.7 242L807.4 193L770.7 189Z" fill="#4c3f29" stroke="#4c3f29"></path><path d="M840.7 353L820.4 278L764.4 406Z" fill="#755d2c" stroke="#755d2c"></path><path d="M201.1 201L158.9 253L187.6 240Z" fill="#fbbf24" stroke="#fbbf24"></path><path d="M187.6 240L158.9 253L169.6 297Z" fill="#604e2b" stroke="#604e2b"></path><path d="M30.3 321L140.6 404L174.6 355Z" fill="#fbbf24" stroke="#fbbf24"></path><path d="M119.6 175L201.1 201L124.9 151Z" fill="#755d2c" stroke="#755d2c"></path><path d="M834.7 144L807.4 193L900 234Z" fill="#242424" stroke="#242424"></path><path d="M202.9 504L219.1 484L186.6 511Z" fill="#b68c2d" stroke="#b68c2d"></path><path d="M220.9 430L219.1 484L283.4 466Z" fill="#a07c2d" stroke="#a07c2d"></path><path d="M219.1 484L228.1 500L283.4 466Z" fill="#a07c2d" stroke="#a07c2d"></path><path d="M259.4 565L355.4 600L323.7 492Z" fill="#fbbf24" stroke="#fbbf24"></path><path d="M596.9 600L649.9 595L570.6 496Z" fill="#fbbf24" stroke="#fbbf24"></path><path d="M838.7 409L764.4 406L826.7 455Z" fill="#fbbf24" stroke="#fbbf24"></path><path d="M363.7 0L283.4 0L278.1 33Z" fill="#4c3f29" stroke="#4c3f29"></path><path d="M278.1 33L131.9 116L211.1 183Z" fill="#a07c2d" stroke="#a07c2d"></path><path d="M764.4 406L747.4 445L826.7 455Z" fill="#8a6c2d" stroke="#8a6c2d"></path><path d="M838.7 409L840.7 353L764.4 406Z" fill="#242424" stroke="#242424"></path><path d="M900 234L807.4 193L806.7 242Z" fill="#4c3f29" stroke="#4c3f29"></path><path d="M219.1 484L202.9 504L228.1 500Z" fill="#4c3f29" stroke="#4c3f29"></path><path d="M228.1 500L259.4 565L283.4 466Z" fill="#e4ae28" stroke="#e4ae28"></path><path d="M140.6 404L220.9 430L190.1 369Z" fill="#604e2b" stroke="#604e2b"></path><path d="M202.9 504L259.4 565L228.1 500Z" fill="#a07c2d" stroke="#a07c2d"></path><path d="M834.7 144L771.7 63L778.4 143Z" fill="#b68c2d" stroke="#b68c2d"></path><path d="M778.4 143L771.7 63L725.1 131Z" fill="#b68c2d" stroke="#b68c2d"></path><path d="M30.3 321L174.6 355L169.6 297Z" fill="#4c3f29" stroke="#4c3f29"></path><path d="M174.6 355L140.6 404L190.1 369Z" fill="#755d2c" stroke="#755d2c"></path><path d="M771.7 63L719.1 0L677.9 85Z" fill="#755d2c" stroke="#755d2c"></path><path d="M283.4 0L257.9 0L278.1 33Z" fill="#383127" stroke="#383127"></path><path d="M826.7 455L747.4 445L801.4 501Z" fill="#383127" stroke="#383127"></path><path d="M807.4 193L834.7 144L778.4 143Z" fill="#e4ae28" stroke="#e4ae28"></path><path d="M900 235L806.7 242L820.4 278Z" fill="#a07c2d" stroke="#a07c2d"></path><path d="M596.9 600L696.1 600L649.9 595Z" fill="#8a6c2d" stroke="#8a6c2d"></path><path d="M649.9 595L696.1 600L687.9 535Z" fill="#e4ae28" stroke="#e4ae28"></path><path d="M140.6 404L186.6 511L219.1 484Z" fill="#cd9d2b" stroke="#cd9d2b"></path><path d="M202.9 504L186.6 511L259.4 565Z" fill="#242424" stroke="#242424"></path><path d="M801.4 501L747.4 445L772.4 552Z" fill="#e4ae28" stroke="#e4ae28"></path><path d="M772.4 552L747.4 445L687.9 535Z" fill="#e4ae28" stroke="#e4ae28"></path><path d="M257.9 0L231.1 0L278.1 33Z" fill="#242424" stroke="#242424"></path><path d="M124.9 151L201.1 201L211.1 183Z" fill="#755d2c" stroke="#755d2c"></path><path d="M158.9 253L36.3 272L169.6 297Z" fill="#e4ae28" stroke="#e4ae28"></path><path d="M719.4 600L772.4 552L687.9 535Z" fill="#604e2b" stroke="#604e2b"></path><path d="M696.1 600L719.4 600L687.9 535Z" fill="#cd9d2b" stroke="#cd9d2b"></path><path d="M131.9 116L124.9 151L211.1 183Z" fill="#604e2b" stroke="#604e2b"></path><path d="M231.1 0L131.9 116L278.1 33Z" fill="#fbbf24" stroke="#fbbf24"></path><path d="M18.3 212L36.3 272L119.6 175Z" fill="#a07c2d" stroke="#a07c2d"></path><path d="M900 387L872.7 412L900 421Z" fill="#4c3f29" stroke="#4c3f29"></path><path d="M872.7 476L872.7 412L826.7 455Z" fill="#383127" stroke="#383127"></path><path d="M826.7 455L872.7 412L838.7 409Z" fill="#604e2b" stroke="#604e2b"></path><path d="M838.7 409L872.7 412L840.7 353Z" fill="#4c3f29" stroke="#4c3f29"></path><path d="M840.7 353L900 235L820.4 278Z" fill="#604e2b" stroke="#604e2b"></path><path d="M771.7 63L766.4 -8L719.1 0Z" fill="#383127" stroke="#383127"></path><path d="M719.1 0L766.4 -8L636.6 0Z" fill="#cd9d2b" stroke="#cd9d2b"></path><path d="M636.6 0L766.4 -8L584.9 0Z" fill="#242424" stroke="#242424"></path><path d="M584.9 0L766.4 -8L461.3 0Z" fill="#383127" stroke="#383127"></path><path d="M461.3 0L766.4 -8L429 0Z" fill="#fbbf24" stroke="#fbbf24"></path><path d="M429 0L766.4 -8L363.7 0Z" fill="#4c3f29" stroke="#4c3f29"></path><path d="M363.7 0L766.4 -8L283.4 0Z" fill="#604e2b" stroke="#604e2b"></path><path d="M283.4 0L766.4 -8L257.9 0Z" fill="#604e2b" stroke="#604e2b"></path><path d="M257.9 0L766.4 -8L231.1 0Z" fill="#383127" stroke="#383127"></path><path d="M783.4 0L766.4 -8L771.7 63Z" fill="#8a6c2d" stroke="#8a6c2d"></path><path d="M825.7 0L783.4 0L771.7 63Z" fill="#4c3f29" stroke="#4c3f29"></path><path d="M900 387L900 235L840.7 353Z" fill="#cd9d2b" stroke="#cd9d2b"></path><path d="M900 81L825.7 0L771.7 63Z" fill="#cd9d2b" stroke="#cd9d2b"></path><path d="M900 235L900 234L806.7 242Z" fill="#242424" stroke="#242424"></path><path d="M872.7 476L826.7 455L801.4 501Z" fill="#8a6c2d" stroke="#8a6c2d"></path><path d="M872.7 412L900 387L840.7 353Z" fill="#604e2b" stroke="#604e2b"></path><path d="M177.6 600L200.1 600L147.9 573Z" fill="#fbbf24" stroke="#fbbf24"></path><path d="M186.6 511L200.1 600L259.4 565Z" fill="#e4ae28" stroke="#e4ae28"></path><path d="M259.4 565L200.1 600L355.4 600Z" fill="#604e2b" stroke="#604e2b"></path><path d="M140.6 404L114.6 490L186.6 511Z" fill="#383127" stroke="#383127"></path><path d="M38.3 445L114.6 490L140.6 404Z" fill="#604e2b" stroke="#604e2b"></path><path d="M900 522L872.7 476L801.4 501Z" fill="#fbbf24" stroke="#fbbf24"></path><path d="M817.7 600L801.4 501L772.4 552Z" fill="#e4ae28" stroke="#e4ae28"></path><path d="M900 425L900 421L872.7 412Z" fill="#755d2c" stroke="#755d2c"></path><path d="M872.7 476L900 425L872.7 412Z" fill="#755d2c" stroke="#755d2c"></path><path d="M147.9 573L200.1 600L186.6 511Z" fill="#8a6c2d" stroke="#8a6c2d"></path><path d="M900 234L900 126L834.7 144Z" fill="#b68c2d" stroke="#b68c2d"></path><path d="M900 81L771.7 63L834.7 144Z" fill="#b68c2d" stroke="#b68c2d"></path><path d="M783.4 0L825.7 0L766.4 -8Z" fill="#755d2c" stroke="#755d2c"></path><path d="M114.6 490L147.9 573L186.6 511Z" fill="#383127" stroke="#383127"></path><path d="M147.9 573L167.9 600L177.6 600Z" fill="#755d2c" stroke="#755d2c"></path><path d="M18.3 212L119.6 175L124.9 151Z" fill="#383127" stroke="#383127"></path><path d="M119.6 175L36.3 272L158.9 253Z" fill="#cd9d2b" stroke="#cd9d2b"></path><path d="M719.4 600L817.7 600L772.4 552Z" fill="#755d2c" stroke="#755d2c"></path><path d="M872.7 476L900 522L900 425Z" fill="#242424" stroke="#242424"></path><path d="M900 126L900 81L834.7 144Z" fill="#fbbf24" stroke="#fbbf24"></path><path d="M36.3 272L30.3 321L169.6 297Z" fill="#4c3f29" stroke="#4c3f29"></path><path d="M114.6 490L98.3 587L147.9 573Z" fill="#755d2c" stroke="#755d2c"></path><path d="M119.6 0L76.3 68L131.9 116Z" fill="#4c3f29" stroke="#4c3f29"></path><path d="M131.9 116L76.3 68L124.9 151Z" fill="#e4ae28" stroke="#e4ae28"></path><path d="M766.4 -8L119.6 0L231.1 0Z" fill="#242424" stroke="#242424"></path><path d="M231.1 0L119.6 0L131.9 116Z" fill="#a07c2d" stroke="#a07c2d"></path><path d="M817.7 600L900 522L801.4 501Z" fill="#604e2b" stroke="#604e2b"></path><path d="M0 276L18.3 346L30.3 321Z" fill="#755d2c" stroke="#755d2c"></path><path d="M30.3 321L18.3 346L140.6 404Z" fill="#fbbf24" stroke="#fbbf24"></path><path d="M0 276L30.3 321L36.3 272Z" fill="#fbbf24" stroke="#fbbf24"></path><path d="M0 201L18.3 212L124.9 151Z" fill="#755d2c" stroke="#755d2c"></path><path d="M18.3 346L38.3 445L140.6 404Z" fill="#4c3f29" stroke="#4c3f29"></path><path d="M147.9 573L98.3 587L167.9 600Z" fill="#b68c2d" stroke="#b68c2d"></path><path d="M63.6 44L67.6 60L76.3 68Z" fill="#242424" stroke="#242424"></path><path d="M76.3 68L0 201L124.9 151Z" fill="#a07c2d" stroke="#a07c2d"></path><path d="M766.4 -8L104.3 0L119.6 0Z" fill="#755d2c" stroke="#755d2c"></path><path d="M119.6 0L104.3 0L76.3 68Z" fill="#242424" stroke="#242424"></path><path d="M18.3 212L0 276L36.3 272Z" fill="#383127" stroke="#383127"></path><path d="M18.3 346L0 392L38.3 445Z" fill="#8a6c2d" stroke="#8a6c2d"></path><path d="M104.3 0L63.6 44L76.3 68Z" fill="#383127" stroke="#383127"></path><path d="M0 201L0 214L18.3 212Z" fill="#b68c2d" stroke="#b68c2d"></path><path d="M18.3 212L0 214L0 276Z" fill="#fbbf24" stroke="#fbbf24"></path><path d="M900 81L900 19L825.7 0Z" fill="#8a6c2d" stroke="#8a6c2d"></path><path d="M60.3 545L98.3 587L114.6 490Z" fill="#b68c2d" stroke="#b68c2d"></path><path d="M0 201L76.3 68L2.3 74Z" fill="#cd9d2b" stroke="#cd9d2b"></path><path d="M2.3 74L76.3 68L67.6 60Z" fill="#604e2b" stroke="#604e2b"></path><path d="M0 276L0 392L18.3 346Z" fill="#e4ae28" stroke="#e4ae28"></path><path d="M38.3 445L60.3 545L114.6 490Z" fill="#604e2b" stroke="#604e2b"></path><path d="M0 461L60.3 545L38.3 445Z" fill="#755d2c" stroke="#755d2c"></path><path d="M900 19L900 0L825.7 0Z" fill="#cd9d2b" stroke="#cd9d2b"></path><path d="M825.7 0L900 0L766.4 -8Z" fill="#755d2c" stroke="#755d2c"></path><path d="M817.7 600L900 600L900 522Z" fill="#604e2b" stroke="#604e2b"></path><path d="M0 392L0 454L38.3 445Z" fill="#604e2b" stroke="#604e2b"></path><path d="M0 454L0 461L38.3 445Z" fill="#a07c2d" stroke="#a07c2d"></path><path d="M0 53L2.3 74L63.6 44Z" fill="#8a6c2d" stroke="#8a6c2d"></path><path d="M63.6 44L2.3 74L67.6 60Z" fill="#604e2b" stroke="#604e2b"></path><path d="M0 600L47.3 600L60.3 545Z" fill="#e4ae28" stroke="#e4ae28"></path><path d="M60.3 545L47.3 600L98.3 587Z" fill="#cd9d2b" stroke="#cd9d2b"></path><path d="M98.3 587L47.3 600L167.9 600Z" fill="#a07c2d" stroke="#a07c2d"></path><path d="M0 22L0 53L63.6 44Z" fill="#cd9d2b" stroke="#cd9d2b"></path><path d="M2.3 74L0 53L0 201Z" fill="#383127" stroke="#383127"></path><path d="M0 0L0 22L63.6 44Z" fill="#b68c2d" stroke="#b68c2d"></path><path d="M766.4 -8L0 0L104.3 0Z" fill="#cd9d2b" stroke="#cd9d2b"></path><path d="M104.3 0L0 0L63.6 44Z" fill="#242424" stroke="#242424"></path><path d="M0 461L0 600L60.3 545Z" fill="#4c3f29" stroke="#4c3f29"></path></g></svg>